<svg width="105" height="26" viewBox="0 0 105 26" fill="none" xmlns="http://www.w3.org/2000/svg">
<path d="M13.0801 18.3431H18.2341C18.4333 17.8628 18.6152 17.374 18.7538 16.8681C18.7625 16.8338 18.7711 16.7909 18.7798 16.7566H14.0069C13.825 17.1854 13.6085 17.5884 13.3573 17.9743C13.2706 18.103 13.1754 18.223 13.0801 18.3431Z" fill="black"/>
<path d="M4.3832 4.68224H8.68831C9.76243 4.68224 10.6806 4.9052 11.4516 5.35971C12.2225 5.81421 12.8548 6.42307 13.3486 7.1863C13.8423 7.94952 14.2148 8.80707 14.4487 9.75038C14.6826 10.6937 14.8038 11.6542 14.8038 12.6232C14.8038 13.4636 14.6999 14.304 14.5093 15.153H19.1176C19.2562 14.304 19.3342 13.455 19.3342 12.6232C19.3342 11.0967 19.1263 9.61317 18.7191 8.17248C18.3034 6.72322 17.6537 5.41974 16.7528 4.25346C15.852 3.08719 14.6826 2.15246 13.236 1.46641C11.7894 0.771794 10.0396 0.428772 7.98667 0.428772H0.00012207V15.1701H4.3832V4.68224Z" fill="black"/>
<path d="M0.00012207 24.8347H7.85674C10.0223 24.8347 11.8414 24.466 13.3139 23.7285C13.6864 23.5398 14.0502 23.334 14.388 23.1196H0.00012207V24.8347Z" fill="black"/>
<path d="M4.3832 16.7566H0.00012207V18.3431H4.3832V16.7566Z" fill="black"/>
<path d="M16.8481 20.8128C17.056 20.5298 17.2552 20.2296 17.4371 19.9295H11.1657C10.3774 20.3326 9.43326 20.5384 8.31584 20.5384H4.39186V19.9295H0.00012207V21.516H16.2591C16.467 21.2844 16.6662 21.0529 16.8481 20.8042V20.8128Z" fill="black"/>
<path d="M42.5317 0.428772H38.1313V15.1701H42.5317V0.428772Z" fill="black"/>
<path d="M28.0311 24.1144C29.4344 24.8776 31.1322 25.2549 33.1158 25.2549C34.4065 25.2549 35.6192 25.0749 36.7539 24.7061C37.8194 24.3631 38.7636 23.8314 39.5951 23.1196H26.6278C27.0523 23.497 27.5114 23.8314 28.0311 24.1144Z" fill="black"/>
<path d="M42.263 18.3431C42.3669 17.8371 42.4535 17.314 42.4969 16.7566H38.0618C37.9925 17.3569 37.8712 17.8886 37.6893 18.3431H42.263Z" fill="black"/>
<path d="M28.0917 0.428772H23.7086V15.1701H28.0917V0.428772Z" fill="black"/>
<path d="M28.5335 18.3431C28.3516 17.88 28.2303 17.3483 28.161 16.7566H23.7606C23.8039 17.314 23.8732 17.8457 23.9772 18.3431H28.5335Z" fill="black"/>
<path d="M41.8041 19.9381H36.5635C36.3556 20.101 36.139 20.2554 35.8965 20.3755C35.1515 20.7356 34.2247 20.9157 33.1159 20.9157C31.6087 20.9157 30.448 20.5899 29.6424 19.9381H24.4364C24.549 20.2297 24.6703 20.5212 24.8089 20.7957C24.9388 21.0529 25.0947 21.293 25.2506 21.5332H40.9812C41.2931 21.0529 41.5616 20.5384 41.7955 19.9638C41.7955 19.9638 41.7955 19.9553 41.7955 19.9467L41.8041 19.9381Z" fill="black"/>
<path d="M59.5786 18.3431H64.0137C64.0137 18.1973 64.031 18.0601 64.031 17.9143C64.031 17.5027 63.9963 17.1253 63.953 16.7566H59.3447C59.518 17.0996 59.6133 17.4941 59.6133 17.9314C59.6133 18.0772 59.6046 18.2144 59.5873 18.3431H59.5786Z" fill="black"/>
<path d="M58.8512 19.9381C58.7559 20.041 58.652 20.1353 58.5307 20.2211C57.8118 20.7442 56.8502 21.0101 55.6462 21.0101C54.5114 21.0101 53.4893 20.6585 52.5798 19.9467H46.958C47.2265 20.5127 47.5297 21.0444 47.8935 21.5332H63.1303C63.4162 21.0444 63.6327 20.5127 63.78 19.9467H58.8512V19.9381Z" fill="black"/>
<path d="M51.5058 24.4488C52.7098 24.9805 54.0525 25.2464 55.5337 25.2464C57.1362 25.2464 58.5741 24.9548 59.8475 24.3802C60.5924 24.0458 61.2334 23.617 61.7965 23.1025H49.3749C50.0159 23.6427 50.7175 24.0887 51.5058 24.4403V24.4488Z" fill="black"/>
<path d="M50.4405 17.1854L47.3914 18.3516H51.1074C50.8562 17.9915 50.631 17.6056 50.4405 17.1854Z" fill="black"/>
<path d="M63.3294 14.6985C62.8703 13.8238 62.2553 13.0863 61.493 12.4946C60.7308 11.9028 59.8819 11.3969 58.955 10.9853C58.0195 10.5736 57.0926 10.2049 56.1485 9.87902C55.3169 9.57888 54.5633 9.27873 53.9049 8.98716C53.2466 8.6956 52.7182 8.36973 52.3284 8.00098C51.9386 7.63223 51.7481 7.1863 51.7481 6.66319C51.7481 5.89997 52.0339 5.29968 52.6143 4.88806C53.186 4.46786 54.0002 4.26204 55.0397 4.26204C56.1485 4.26204 57.0233 4.51073 57.673 4.99954C58.3227 5.49692 58.8078 6.10578 59.1196 6.8347L63.0522 5.48834C62.7837 4.44213 62.2986 3.5074 61.597 2.68414C60.8953 1.86089 60.0118 1.20915 58.9463 0.720345C57.8809 0.240115 56.6595 0 55.2822 0C53.6018 0 52.1725 0.300144 50.9858 0.900432C49.8077 1.50072 48.9069 2.29824 48.2832 3.30158C47.6595 4.30492 47.3477 5.40259 47.3477 6.59459C47.3477 7.78659 47.5729 8.80708 48.0146 9.63033C48.4564 10.4536 49.0541 11.1396 49.7817 11.6799C50.518 12.2201 51.3236 12.6746 52.2072 13.052C53.0907 13.4207 53.9656 13.7637 54.8318 14.0639C55.7327 14.3812 56.5469 14.6985 57.2572 15.0329C57.3525 15.0758 57.4391 15.1272 57.5257 15.1701H63.5373C63.4767 15.0158 63.4074 14.8528 63.3294 14.707V14.6985Z" fill="black"/>
<path d="M77.3104 16.7566H72.9274V18.3431H77.3104V16.7566Z" fill="black"/>
<path d="M77.3189 4.76799H84.0754V0.428772H66.2053V4.76799H72.9272V15.1615H77.3189V4.76799Z" fill="black"/>
<path d="M77.3104 23.1196H72.9274V24.8347H77.3104V23.1196Z" fill="black"/>
<path d="M77.3104 19.9381H72.9274V21.5246H77.3104V19.9381Z" fill="black"/>
<path d="M100.109 24.8347H104.83L104.198 23.1196H99.4854L100.109 24.8347Z" fill="black"/>
<path d="M98.9051 21.5246H103.6L103.011 19.9381H98.3247L98.9051 21.5246Z" fill="black"/>
<path d="M93.6908 5.95142C93.7428 6.11435 96.0902 13.4121 96.6533 15.1615H101.244L95.7697 0.428772H91.6032L86.1547 15.1701H90.711C91.274 13.4207 93.6388 6.12293 93.6908 5.95999V5.95142Z" fill="black"/>
<path d="M85.5743 16.7566L84.9852 18.3431H102.422L101.833 16.7566H85.5743Z" fill="black"/>
<path d="M88.5107 21.5246L89.0738 19.9381H84.3962L83.8071 21.5246H88.5107Z" fill="black"/>
<path d="M82.5854 24.8347H87.3237L87.9387 23.1196H83.2178L82.5854 24.8347Z" fill="black"/>
</svg>
