<svg width="180" height="59" viewBox="0 0 180 59" fill="none" xmlns="http://www.w3.org/2000/svg">
<path d="M22.3555 31.3512H31.1645C31.505 30.5304 31.8159 29.6949 32.0528 28.8302C32.0676 28.7716 32.0824 28.6983 32.0972 28.6396H23.9396C23.6287 29.3725 23.2586 30.0614 22.8292 30.7209C22.6812 30.9408 22.5183 31.146 22.3555 31.3512Z" fill="black"/>
<path d="M7.49135 8.00262H14.8495C16.6853 8.00262 18.2546 8.3837 19.5723 9.16052C20.8899 9.93734 21.9707 10.978 22.8146 12.2824C23.6585 13.5869 24.2951 15.0526 24.6948 16.6649C25.0946 18.2771 25.3018 19.9187 25.3018 21.5749C25.3018 23.0113 25.1242 24.4477 24.7985 25.8987H32.6747C32.9116 24.4477 33.0449 22.9967 33.0449 21.5749C33.0449 18.966 32.6895 16.4304 31.9937 13.968C31.2831 11.491 30.1727 9.26312 28.633 7.26978C27.0932 5.27643 25.0946 3.67883 22.6221 2.50628C20.1497 1.31907 17.159 0.732788 13.6503 0.732788H0V25.928H7.49135V8.00262Z" fill="black"/>
<path d="M0 42.4464H13.4282C17.1294 42.4464 20.2385 41.8162 22.7554 40.5557C23.392 40.2332 24.0138 39.8814 24.5912 39.515H0V42.4464Z" fill="black"/>
<path d="M7.49135 28.6396H0V31.3512H7.49135V28.6396Z" fill="black"/>
<path d="M28.7958 35.5723C29.1511 35.0886 29.4917 34.5756 29.8026 34.0626H19.0837C17.7364 34.7515 16.1227 35.1033 14.2128 35.1033H7.50616V34.0626H0V36.7742H27.7891C28.1444 36.3784 28.4849 35.9827 28.7958 35.5576V35.5723Z" fill="black"/>
<path d="M72.6928 0.732788H65.1719V25.928H72.6928V0.732788Z" fill="black"/>
<path d="M47.9092 41.2152C50.3076 42.5197 53.2094 43.1646 56.5997 43.1646C58.8057 43.1646 60.8784 42.8568 62.8178 42.2265C64.6389 41.6403 66.2526 40.7315 67.6739 39.515H45.5107C46.2362 40.1599 47.0209 40.7315 47.9092 41.2152Z" fill="black"/>
<path d="M72.2341 31.3512C72.4117 30.4864 72.5598 29.5923 72.6338 28.6396H65.0536C64.9352 29.6656 64.7279 30.5744 64.417 31.3512H72.2341Z" fill="black"/>
<path d="M48.0128 0.732788H40.5215V25.928H48.0128V0.732788Z" fill="black"/>
<path d="M48.7679 31.3512C48.457 30.5597 48.2498 29.651 48.1313 28.6396H40.6104C40.6844 29.5923 40.8028 30.5011 40.9805 31.3512H48.7679Z" fill="black"/>
<path d="M71.4497 34.0773H62.4927C62.1374 34.3558 61.7672 34.6196 61.3527 34.8248C60.0795 35.4404 58.4953 35.7482 56.6003 35.7482C54.0242 35.7482 52.0403 35.1912 50.6635 34.0773H41.7656C41.9581 34.5756 42.1654 35.0739 42.4022 35.543C42.6243 35.9827 42.8908 36.3931 43.1573 36.8035H70.0433C70.5763 35.9827 71.0352 35.1033 71.4349 34.1212C71.4349 34.1212 71.4349 34.1066 71.4349 34.0919L71.4497 34.0773Z" fill="black"/>
<path d="M101.829 31.3512H109.41C109.41 31.102 109.439 30.8675 109.439 30.6183C109.439 29.9148 109.38 29.2699 109.306 28.6396H101.43C101.726 29.2259 101.889 29.9001 101.889 30.6476C101.889 30.8968 101.874 31.1313 101.844 31.3512H101.829Z" fill="black"/>
<path d="M100.586 34.0773C100.423 34.2532 100.246 34.4144 100.038 34.5609C98.8095 35.455 97.1662 35.9094 95.1082 35.9094C93.1688 35.9094 91.4218 35.3085 89.8673 34.0919H80.2588C80.7177 35.0593 81.2359 35.968 81.8577 36.8035H107.9C108.388 35.968 108.759 35.0593 109.01 34.0919H100.586V34.0773Z" fill="black"/>
<path d="M88.0317 41.7869C90.0896 42.6956 92.3844 43.1499 94.916 43.1499C97.655 43.1499 100.113 42.6516 102.289 41.6696C103.562 41.098 104.658 40.3651 105.62 39.4857H84.3896C85.4852 40.4091 86.6844 41.1713 88.0317 41.7722V41.7869Z" fill="black"/>
<path d="M86.2104 29.3724L80.999 31.3658H87.3504C86.921 30.7502 86.5361 30.0906 86.2104 29.3724Z" fill="black"/>
<path d="M108.24 25.122C107.455 23.627 106.404 22.3665 105.101 21.3551C103.799 20.3438 102.348 19.4791 100.764 18.7755C99.1646 18.072 97.5805 17.4417 95.9667 16.8848C94.5454 16.3718 93.2574 15.8588 92.1322 15.3605C91.007 14.8621 90.1039 14.3052 89.4377 13.6749C88.7715 13.0447 88.4458 12.2825 88.4458 11.3884C88.4458 10.084 88.9343 9.05798 89.9263 8.35445C90.9034 7.63626 92.2951 7.28449 94.0717 7.28449C95.9667 7.28449 97.462 7.70954 98.5724 8.54499C99.6828 9.39509 100.512 10.4357 101.045 11.6816L107.766 9.38043C107.307 7.59229 106.478 5.99468 105.279 4.58762C104.08 3.18055 102.57 2.06663 100.749 1.23118C98.9277 0.410394 96.8402 0 94.4862 0C91.614 0 89.1712 0.512992 87.1429 1.53898C85.1294 2.56496 83.5897 3.92806 82.5238 5.64292C81.4578 7.35778 80.9248 9.23386 80.9248 11.2712C80.9248 13.3085 81.3097 15.0527 82.0648 16.4597C82.8199 17.8668 83.8414 19.0393 85.085 19.9627C86.3435 20.8861 87.7203 21.6629 89.2304 22.3078C90.7406 22.9381 92.2359 23.5244 93.7164 24.0374C95.2561 24.5797 96.6478 25.122 97.8618 25.6936C98.0246 25.7669 98.1727 25.8548 98.3207 25.9281H108.595C108.492 25.6643 108.373 25.3858 108.24 25.1366V25.122Z" fill="black"/>
<path d="M132.136 28.6396H124.645V31.3512H132.136V28.6396Z" fill="black"/>
<path d="M132.15 8.14919H143.698V0.732788H113.155V8.14919H124.644V25.9134H132.15V8.14919Z" fill="black"/>
<path d="M132.136 39.515H124.645V42.4464H132.136V39.515Z" fill="black"/>
<path d="M132.136 34.0773H124.645V36.7888H132.136V34.0773Z" fill="black"/>
<path d="M171.102 42.4464H179.171L178.09 39.515H170.036L171.102 42.4464Z" fill="black"/>
<path d="M169.044 36.7888H177.068L176.061 34.0773H168.052L169.044 36.7888Z" fill="black"/>
<path d="M160.131 10.1718C160.22 10.4503 164.232 22.9234 165.195 25.9134H173.041L163.685 0.732788H156.563L147.251 25.928H155.038C156.001 22.938 160.043 10.465 160.131 10.1865V10.1718Z" fill="black"/>
<path d="M146.26 28.6396L145.253 31.3512H175.055L174.049 28.6396H146.26Z" fill="black"/>
<path d="M151.278 36.7888L152.241 34.0773H144.246L143.239 36.7888H151.278Z" fill="black"/>
<path d="M141.151 42.4464H149.25L150.301 39.515H142.232L141.151 42.4464Z" fill="black"/>
<path d="M0 47.6497H3.39036C7.40252 47.6497 9.69731 49.3938 9.69731 52.7063C9.69731 56.0188 7.40252 57.8362 3.49399 57.8362H0V47.6497ZM3.25711 56.5171C6.07007 56.5171 7.58018 55.2273 7.58018 52.7063C7.58018 50.1853 6.07007 48.9541 3.25711 48.9541H2.0579V56.5171H3.25711Z" fill="black"/>
<path d="M12.2588 53.4685V47.6497H14.3167V53.5857C14.3167 55.8868 15.4863 56.6344 17.1296 56.6344C18.773 56.6344 19.987 55.8868 19.987 53.5857V47.6497H21.9857V53.4685C21.9857 56.7809 20.0314 58.0121 17.1296 58.0121C14.2279 58.0121 12.2588 56.7809 12.2588 53.4685Z" fill="black"/>
<path d="M23.0812 56.3266L24.5173 55.5058C25.0651 56.2973 25.7757 56.6051 26.6344 56.6051C27.9521 56.6051 28.6035 56.0481 28.6035 54.5531V47.6204H30.6614V54.6997C30.6614 56.5171 29.5214 57.9828 26.8565 57.9828C25.0947 57.9828 23.8807 57.4112 23.0664 56.2973L23.0812 56.3266Z" fill="black"/>
<path d="M33.252 52.7063C33.252 49.4231 35.5763 47.4738 38.9371 47.4738C42.2978 47.4738 44.6518 49.4378 44.6518 52.7063C44.6518 55.9748 42.2978 58.0121 38.9371 58.0121C35.5763 58.0121 33.252 55.9748 33.252 52.7063ZM42.5347 52.7063C42.5347 50.3172 41.1134 48.8662 38.9371 48.8662C36.7607 48.8662 35.3691 50.3172 35.3691 52.7063C35.3691 55.0954 36.7756 56.6197 38.9371 56.6197C41.0986 56.6197 42.5347 55.0807 42.5347 52.7063Z" fill="black"/>
<path d="M49.4488 48.9981H45.6143V47.6497H55.3856V48.9981H51.5215V57.8362H49.4636V48.9981H49.4488Z" fill="black"/>
<path d="M57.5322 47.6497H59.5901V57.8362H57.5322V47.6497Z" fill="black"/>
<path d="M62.9365 47.6497H70.6796V48.9981H65.0092V51.8269H69.8061V53.1753H65.0092V56.4585H70.872V57.8069H62.9365V47.6204V47.6497Z" fill="black"/>
<path d="M73.5225 47.6497H75.5804V52.4718H75.6396L80.6141 47.6497H82.9089L78.8523 51.5924L83.5899 57.8362H81.2951L77.5938 52.8529L75.5804 54.7729V57.8362H73.5225V47.6497Z" fill="black"/>
<path d="M85.2178 47.6497H87.2757V57.8362H85.2178V47.6497Z" fill="black"/>
<path d="M89.8965 52.7063C89.8965 49.4231 92.2209 47.4738 95.5816 47.4738C98.9424 47.4738 101.296 49.4378 101.296 52.7063C101.296 55.9748 98.9424 58.0121 95.5816 58.0121C92.2209 58.0121 89.8965 55.9748 89.8965 52.7063ZM99.1792 52.7063C99.1792 50.3172 97.758 48.8662 95.5816 48.8662C93.4053 48.8662 92.0136 50.3172 92.0136 52.7063C92.0136 55.0954 93.4201 56.6197 95.5816 56.6197C97.7432 56.6197 99.1792 55.0807 99.1792 52.7063Z" fill="black"/>
<path d="M106.907 56.5171L108.121 55.4178C109.069 56.1506 110.342 56.6197 111.601 56.6197C113.185 56.6197 114.073 56.0334 114.073 55.1833C114.073 54.2599 113.185 53.9668 111.971 53.5564L110.15 52.9554C108.891 52.545 107.485 51.7682 107.485 50.2879C107.485 48.6903 109.306 47.4884 111.793 47.4884C113.318 47.4884 114.769 47.9867 115.761 48.7782L114.68 49.8042C113.866 49.2326 112.963 48.8955 111.793 48.8955C110.461 48.8955 109.587 49.3938 109.587 50.1999C109.587 51.0794 110.638 51.4165 111.704 51.7536L113.496 52.3545C115.05 52.8675 116.161 53.615 116.161 55.11C116.161 56.7369 114.414 58.0707 111.556 58.0707C109.765 58.0707 108.092 57.5137 106.893 56.5757L106.907 56.5171Z" fill="black"/>
<path d="M120.839 48.9981H116.989V47.6497H126.761V48.9981H122.896V57.8362H120.839V48.9981Z" fill="black"/>
<path d="M130.729 47.6497H133.112L137.45 57.8362H135.259L134.163 54.9342H129.603L128.478 57.8362H126.376L130.714 47.6497H130.729ZM130.092 53.6737H133.66L133.142 52.3106C132.698 51.2113 132.313 50.068 131.913 48.9248H131.824C131.454 50.0827 131.04 51.2113 130.61 52.3106L130.077 53.6737H130.092Z" fill="black"/>
<path d="M140.544 48.9981H136.71V47.6497H146.481V48.9981H142.617V57.8362H140.559V48.9981H140.544Z" fill="black"/>
<path d="M150.479 53.9814L146.556 47.6497H148.762L150.272 50.3612C150.686 51.1233 151.056 51.8269 151.501 52.6037H151.575C152.004 51.8269 152.433 51.1233 152.818 50.3612L154.343 47.6497H156.49L152.537 53.9814V57.8362H150.479V53.9814Z" fill="black"/>
<path d="M158.074 47.6497H162.131C164.811 47.6497 166.75 48.3239 166.75 50.1707C166.75 51.138 166.054 52.0614 164.885 52.3692V52.4425C166.38 52.6916 167.461 53.4831 167.461 54.8609C167.461 56.8835 165.344 57.8509 162.442 57.8509H158.074V47.6643V47.6497ZM161.894 51.9002C163.878 51.9002 164.722 51.3139 164.722 50.3612C164.722 49.2912 163.804 48.8955 161.953 48.8955H160.132V51.9002H161.894ZM162.22 56.5757C164.263 56.5757 165.432 56.0041 165.432 54.7583C165.432 53.615 164.292 53.102 162.22 53.102H160.132V56.5757H162.22Z" fill="black"/>
<path d="M172.449 47.6497H174.833L179.171 57.8362H176.98L175.884 54.9342H171.324L170.199 57.8362H168.097L172.435 47.6497H172.449ZM171.813 53.6737H175.381L174.863 52.3106C174.418 51.2113 174.034 50.068 173.634 48.9248H173.545C173.175 50.0827 172.76 51.2113 172.331 52.3106L171.798 53.6737H171.813Z" fill="black"/>
</svg>
